<?xml version="1.0" encoding="UTF-8" standalone="no"?>
<!DOCTYPE svg PUBLIC "-//W3C//DTD SVG 1.1//EN"
 "http://www.w3.org/Graphics/SVG/1.1/DTD/svg11.dtd">
<!-- Generated by graphviz version 2.50.0 (20211204.2007)
 -->
<!-- Title: graph_name Pages: 1 -->
<svg width="1628pt" height="675pt"
 viewBox="0.00 0.00 1628.00 675.00" xmlns="http://www.w3.org/2000/svg" xmlns:xlink="http://www.w3.org/1999/xlink">
<g id="graph0" class="graph" transform="scale(1 1) rotate(0) translate(4 671)">
<title>graph_name</title>
<polygon fill="white" stroke="transparent" points="-4,4 -4,-671 1624,-671 1624,4 -4,4"/>
<g id="clust1" class="cluster">
<title>cluster_korea</title>
<polygon fill="none" stroke="black" points="8,-8 8,-520 898,-520 898,-8 8,-8"/>
<text text-anchor="middle" x="453" y="-504.8" font-family="Times,serif" font-size="14.00">江戸時代の先祖が朝鮮人と思われる人</text>
</g>
<g id="clust2" class="cluster">
<title>cluster_ks</title>
<polygon fill="none" stroke="black" points="410,-375 410,-489 890,-489 890,-375 410,-375"/>
<text text-anchor="middle" x="650" y="-473.8" font-family="Times,serif" font-size="14.00">創価学会</text>
</g>
<g id="clust3" class="cluster">
<title>cluster_kk</title>
<polygon fill="none" stroke="black" points="778,-383 778,-458 882,-458 882,-383 778,-383"/>
<text text-anchor="middle" x="830" y="-442.8" font-family="Times,serif" font-size="14.00">金光教</text>
</g>
<g id="clust4" class="cluster">
<title>cluster_kc</title>
<polygon fill="none" stroke="black" points="16,-155 16,-230 396,-230 396,-155 16,-155"/>
<text text-anchor="middle" x="206" y="-214.8" font-family="Times,serif" font-size="14.00">統一教会</text>
</g>
<g id="clust5" class="cluster">
<title>cluster_ku</title>
<polygon fill="none" stroke="black" points="404,-16 404,-344 890,-344 890,-16 404,-16"/>
<text text-anchor="middle" x="647" y="-328.8" font-family="Times,serif" font-size="14.00">不明</text>
</g>
<g id="clust6" class="cluster">
<title>cluster_japan</title>
<polygon fill="none" stroke="black" points="906,-261 906,-659 1302,-659 1302,-261 906,-261"/>
<text text-anchor="middle" x="1104" y="-643.8" font-family="Times,serif" font-size="14.00">江戸時代の先祖が日本人と思われる人</text>
</g>
<g id="clust7" class="cluster">
<title>cluster_jc</title>
<polygon fill="none" stroke="black" points="1136,-553 1136,-628 1240,-628 1240,-553 1136,-553"/>
<text text-anchor="middle" x="1188" y="-612.8" font-family="Times,serif" font-size="14.00">統一教会</text>
</g>
<g id="clust8" class="cluster">
<title>cluster_js</title>
<polygon fill="none" stroke="black" points="914,-383 914,-458 1242,-458 1242,-383 914,-383"/>
<text text-anchor="middle" x="1078" y="-442.8" font-family="Times,serif" font-size="14.00">創価学会</text>
</g>
<g id="clust9" class="cluster">
<title>cluster_ju</title>
<polygon fill="none" stroke="black" points="914,-269 914,-344 1294,-344 1294,-269 914,-269"/>
<text text-anchor="middle" x="1104" y="-328.8" font-family="Times,serif" font-size="14.00">不明</text>
</g>
<g id="clust10" class="cluster">
<title>cluster_unk</title>
<polygon fill="none" stroke="black" points="1028,-8 1028,-122 1612,-122 1612,-8 1028,-8"/>
<text text-anchor="middle" x="1320" y="-106.8" font-family="Times,serif" font-size="14.00">不明</text>
</g>
<g id="clust11" class="cluster">
<title>cluster_uc</title>
<polygon fill="none" stroke="black" points="1514,-16 1514,-91 1604,-91 1604,-16 1514,-16"/>
<text text-anchor="middle" x="1559" y="-75.8" font-family="Times,serif" font-size="14.00">統一教会</text>
</g>
<g id="clust12" class="cluster">
<title>cluster_us</title>
<polygon fill="none" stroke="black" points="1318,-16 1318,-91 1408,-91 1408,-16 1318,-16"/>
<text text-anchor="middle" x="1363" y="-75.8" font-family="Times,serif" font-size="14.00">創価学会</text>
</g>
<g id="clust13" class="cluster">
<title>cluster_uu</title>
<polygon fill="none" stroke="black" points="1416,-16 1416,-91 1506,-91 1506,-16 1416,-16"/>
<text text-anchor="middle" x="1461" y="-75.8" font-family="Times,serif" font-size="14.00">謎</text>
</g>
<g id="clust14" class="cluster">
<title>cluster_uuu</title>
<polygon fill="none" stroke="black" points="1036,-16 1036,-91 1310,-91 1310,-16 1036,-16"/>
<text text-anchor="middle" x="1173" y="-75.8" font-family="Times,serif" font-size="14.00">不明</text>
</g>
<g id="clust15" class="cluster">
<title>cluster_special</title>
<polygon fill="none" stroke="black" points="1501,-383 1501,-458 1591,-458 1591,-383 1501,-383"/>
<text text-anchor="middle" x="1546" y="-442.8" font-family="Times,serif" font-size="14.00">その他</text>
</g>
<!-- mukai -->
<g id="node1" class="node">
<title>mukai</title>
<path fill="#ffeeee" stroke="#ffffff" d="M558,-427C558,-427 508,-427 508,-427 502,-427 496,-421 496,-415 496,-415 496,-403 496,-403 496,-397 502,-391 508,-391 508,-391 558,-391 558,-391 564,-391 570,-397 570,-403 570,-403 570,-415 570,-415 570,-421 564,-427 558,-427"/>
<text text-anchor="middle" x="533" y="-405.3" font-family="Times,serif" font-size="14.00">向井葉月</text>
</g>
<!-- hashimoto -->
<g id="node21" class="node">
<title>hashimoto</title>
<path fill="#ffeeee" stroke="#ffffff" d="M1220,-597C1220,-597 1156,-597 1156,-597 1150,-597 1144,-591 1144,-585 1144,-585 1144,-573 1144,-573 1144,-567 1150,-561 1156,-561 1156,-561 1220,-561 1220,-561 1226,-561 1232,-567 1232,-573 1232,-573 1232,-585 1232,-585 1232,-591 1226,-597 1220,-597"/>
<text text-anchor="middle" x="1188" y="-575.3" font-family="Times,serif" font-size="14.00">橋本奈々未</text>
</g>
<!-- mukai&#45;&gt;hashimoto -->
<!-- himetan -->
<g id="node25" class="node">
<title>himetan</title>
<path fill="#ffeeee" stroke="#ffffff" d="M1274,-313C1274,-313 1210,-313 1210,-313 1204,-313 1198,-307 1198,-301 1198,-301 1198,-289 1198,-289 1198,-283 1204,-277 1210,-277 1210,-277 1274,-277 1274,-277 1280,-277 1286,-283 1286,-289 1286,-289 1286,-301 1286,-301 1286,-307 1280,-313 1274,-313"/>
<text text-anchor="middle" x="1242" y="-291.3" font-family="Times,serif" font-size="14.00">中元日芽香</text>
</g>
<!-- mukai&#45;&gt;himetan -->
<!-- reika -->
<g id="node2" class="node">
<title>reika</title>
<path fill="#ffeeee" stroke="#ffffff" d="M650,-427C650,-427 600,-427 600,-427 594,-427 588,-421 588,-415 588,-415 588,-403 588,-403 588,-397 594,-391 600,-391 600,-391 650,-391 650,-391 656,-391 662,-397 662,-403 662,-403 662,-415 662,-415 662,-421 656,-427 650,-427"/>
<text text-anchor="middle" x="625" y="-405.3" font-family="Times,serif" font-size="14.00">桜井玲香</text>
</g>
<!-- erika -->
<g id="node3" class="node">
<title>erika</title>
<path fill="#ffeeee" stroke="#ffffff" d="M756,-427C756,-427 692,-427 692,-427 686,-427 680,-421 680,-415 680,-415 680,-403 680,-403 680,-397 686,-391 692,-391 692,-391 756,-391 756,-391 762,-391 768,-397 768,-403 768,-403 768,-415 768,-415 768,-421 762,-427 756,-427"/>
<text text-anchor="middle" x="724" y="-405.3" font-family="Times,serif" font-size="14.00">生田絵梨花</text>
</g>
<!-- hayashi -->
<g id="node4" class="node">
<title>hayashi</title>
<path fill="#ffeeee" stroke="#ffffff" d="M465.5,-427C465.5,-427 430.5,-427 430.5,-427 424.5,-427 418.5,-421 418.5,-415 418.5,-415 418.5,-403 418.5,-403 418.5,-397 424.5,-391 430.5,-391 430.5,-391 465.5,-391 465.5,-391 471.5,-391 477.5,-397 477.5,-403 477.5,-403 477.5,-415 477.5,-415 477.5,-421 471.5,-427 465.5,-427"/>
<text text-anchor="middle" x="448" y="-405.3" font-family="Times,serif" font-size="14.00">林瑠奈</text>
</g>
<!-- kinkawa -->
<g id="node9" class="node">
<title>kinkawa</title>
<path fill="#ffeeee" stroke="#ffffff" d="M86,-199C86,-199 36,-199 36,-199 30,-199 24,-193 24,-187 24,-187 24,-175 24,-175 24,-169 30,-163 36,-163 36,-163 86,-163 86,-163 92,-163 98,-169 98,-175 98,-175 98,-187 98,-187 98,-193 92,-199 86,-199"/>
<text text-anchor="middle" x="61" y="-177.3" font-family="Times,serif" font-size="14.00">金川沙耶</text>
</g>
<!-- hayashi&#45;&gt;kinkawa -->
<g id="edge4" class="edge">
<title>hayashi&#45;&gt;kinkawa</title>
<path fill="none" stroke="black" d="M408.7,-392.47C342.65,-365.33 206.83,-304.93 107,-230 95.18,-221.13 83.68,-209.13 75.14,-199.35"/>
<polygon fill="black" stroke="black" points="407.73,-395.86 418.31,-396.39 410.37,-389.37 407.73,-395.86"/>
</g>
<!-- kakehashi -->
<g id="node5" class="node">
<title>kakehashi</title>
<path fill="#ffeeee" stroke="#ffffff" d="M862,-427C862,-427 798,-427 798,-427 792,-427 786,-421 786,-415 786,-415 786,-403 786,-403 786,-397 792,-391 798,-391 798,-391 862,-391 862,-391 868,-391 874,-397 874,-403 874,-403 874,-415 874,-415 874,-421 868,-427 862,-427"/>
<text text-anchor="middle" x="830" y="-405.3" font-family="Times,serif" font-size="14.00">掛橋沙耶香</text>
</g>
<!-- sakura -->
<g id="node14" class="node">
<title>sakura</title>
<path fill="#ffeeee" stroke="#ffffff" d="M580,-313C580,-313 516,-313 516,-313 510,-313 504,-307 504,-301 504,-301 504,-289 504,-289 504,-283 510,-277 516,-277 516,-277 580,-277 580,-277 586,-277 592,-283 592,-289 592,-289 592,-301 592,-301 592,-307 586,-313 580,-313"/>
<text text-anchor="middle" x="548" y="-291.3" font-family="Times,serif" font-size="14.00">遠藤さくら</text>
</g>
<!-- kakehashi&#45;&gt;sakura -->
<!-- seimiya -->
<g id="node6" class="node">
<title>seimiya</title>
<path fill="#ffeeee" stroke="#ffffff" d="M375.5,-199C375.5,-199 326.5,-199 326.5,-199 320.5,-199 314.5,-193 314.5,-187 314.5,-187 314.5,-175 314.5,-175 314.5,-169 320.5,-163 326.5,-163 326.5,-163 375.5,-163 375.5,-163 381.5,-163 387.5,-169 387.5,-175 387.5,-175 387.5,-187 387.5,-187 387.5,-193 381.5,-199 375.5,-199"/>
<text text-anchor="middle" x="351" y="-177.3" font-family="Times,serif" font-size="14.00">清宮レイ</text>
</g>
<!-- yuna -->
<g id="node7" class="node">
<title>yuna</title>
<path fill="#ffeeee" stroke="#ffffff" d="M284,-199C284,-199 234,-199 234,-199 228,-199 222,-193 222,-187 222,-187 222,-175 222,-175 222,-169 228,-163 234,-163 234,-163 284,-163 284,-163 290,-163 296,-169 296,-175 296,-175 296,-187 296,-187 296,-193 290,-199 284,-199"/>
<text text-anchor="middle" x="259" y="-177.3" font-family="Times,serif" font-size="14.00">柴田柚菜</text>
</g>
<!-- ayame -->
<g id="node8" class="node">
<title>ayame</title>
<path fill="#ffeeee" stroke="#ffffff" d="M192,-199C192,-199 128,-199 128,-199 122,-199 116,-193 116,-187 116,-187 116,-175 116,-175 116,-169 122,-163 128,-163 128,-163 192,-163 192,-163 198,-163 204,-169 204,-175 204,-175 204,-187 204,-187 204,-193 198,-199 192,-199"/>
<text text-anchor="middle" x="160" y="-177.3" font-family="Times,serif" font-size="14.00">筒井あやめ</text>
</g>
<!-- ringo -->
<g id="node10" class="node">
<title>ringo</title>
<path fill="#ffeeee" stroke="#ffffff" d="M870,-199C870,-199 806,-199 806,-199 800,-199 794,-193 794,-187 794,-187 794,-175 794,-175 794,-169 800,-163 806,-163 806,-163 870,-163 870,-163 876,-163 882,-169 882,-175 882,-175 882,-187 882,-187 882,-193 876,-199 870,-199"/>
<text text-anchor="middle" x="838" y="-177.3" font-family="Times,serif" font-size="14.00">松村沙友理</text>
</g>
<!-- junna -->
<g id="node19" class="node">
<title>junna</title>
<path fill="#ffeeee" stroke="#ffffff" d="M764,-60C764,-60 714,-60 714,-60 708,-60 702,-54 702,-48 702,-48 702,-36 702,-36 702,-30 708,-24 714,-24 714,-24 764,-24 764,-24 770,-24 776,-30 776,-36 776,-36 776,-48 776,-48 776,-54 770,-60 764,-60"/>
<text text-anchor="middle" x="739" y="-38.3" font-family="Times,serif" font-size="14.00">伊藤純菜</text>
</g>
<!-- ringo&#45;&gt;junna -->
<!-- karin -->
<g id="node20" class="node">
<title>karin</title>
<path fill="#ffeeee" stroke="#ffffff" d="M870,-60C870,-60 806,-60 806,-60 800,-60 794,-54 794,-48 794,-48 794,-36 794,-36 794,-30 800,-24 806,-24 806,-24 870,-24 870,-24 876,-24 882,-30 882,-36 882,-36 882,-48 882,-48 882,-54 876,-60 870,-60"/>
<text text-anchor="middle" x="838" y="-38.3" font-family="Times,serif" font-size="14.00">伊藤かりん</text>
</g>
<!-- ringo&#45;&gt;karin -->
<g id="edge3" class="edge">
<title>ringo&#45;&gt;karin</title>
<path fill="none" stroke="black" d="M838,-162.93C838,-139.75 838,-98.06 838,-70.46"/>
<polygon fill="black" stroke="black" points="841.5,-70.29 838,-60.29 834.5,-70.29 841.5,-70.29"/>
<text text-anchor="middle" x="852.5" y="-133.8" font-family="Times,serif" font-size="14.00">軍団</text>
</g>
<!-- miduki -->
<g id="node30" class="node">
<title>miduki</title>
<path fill="#ffeeee" stroke="#ffffff" d="M1388,-60C1388,-60 1338,-60 1338,-60 1332,-60 1326,-54 1326,-48 1326,-48 1326,-36 1326,-36 1326,-30 1332,-24 1338,-24 1338,-24 1388,-24 1388,-24 1394,-24 1400,-30 1400,-36 1400,-36 1400,-48 1400,-48 1400,-54 1394,-60 1388,-60"/>
<text text-anchor="middle" x="1363" y="-38.3" font-family="Times,serif" font-size="14.00">山下美月</text>
</g>
<!-- ringo&#45;&gt;miduki -->
<g id="edge24" class="edge">
<title>ringo&#45;&gt;miduki</title>
<path fill="none" stroke="black" d="M882.22,-175.12C998.57,-162.22 1304.91,-127.8 1314,-122 1333.05,-109.83 1345.92,-87.33 1353.67,-69.45"/>
<polygon fill="black" stroke="black" points="1356.96,-70.66 1357.46,-60.08 1350.47,-68.04 1356.96,-70.66"/>
<text text-anchor="middle" x="1284.5" y="-133.8" font-family="Times,serif" font-size="14.00">CanCam</text>
</g>
<!-- manatu -->
<g id="node11" class="node">
<title>manatu</title>
<path fill="#ffeeee" stroke="#ffffff" d="M474,-313C474,-313 424,-313 424,-313 418,-313 412,-307 412,-301 412,-301 412,-289 412,-289 412,-283 418,-277 424,-277 424,-277 474,-277 474,-277 480,-277 486,-283 486,-289 486,-289 486,-301 486,-301 486,-307 480,-313 474,-313"/>
<text text-anchor="middle" x="449" y="-291.3" font-family="Times,serif" font-size="14.00">秋元真夏</text>
</g>
<!-- manatu&#45;&gt;ayame -->
<g id="edge5" class="edge">
<title>manatu&#45;&gt;ayame</title>
<path fill="none" stroke="black" d="M411.82,-289.42C363.55,-282.27 277.81,-265.44 213,-230 201.88,-223.92 191.2,-215.05 182.38,-206.59"/>
<polygon fill="black" stroke="black" points="184.68,-203.95 175.14,-199.34 179.73,-208.89 184.68,-203.95"/>
<text text-anchor="middle" x="291" y="-241.8" font-family="Times,serif" font-size="14.00">推しメン</text>
</g>
<!-- sayu -->
<g id="node16" class="node">
<title>sayu</title>
<path fill="#ffeeee" stroke="#ffffff" d="M594,-199C594,-199 530,-199 530,-199 524,-199 518,-193 518,-187 518,-187 518,-175 518,-175 518,-169 524,-163 530,-163 530,-163 594,-163 594,-163 600,-163 606,-169 606,-175 606,-175 606,-187 606,-187 606,-193 600,-199 594,-199"/>
<text text-anchor="middle" x="562" y="-177.3" font-family="Times,serif" font-size="14.00">井上小百合</text>
</g>
<!-- manatu&#45;&gt;sayu -->
<!-- marika -->
<g id="node17" class="node">
<title>marika</title>
<path fill="#ffeeee" stroke="#ffffff" d="M488,-199C488,-199 424,-199 424,-199 418,-199 412,-193 412,-187 412,-187 412,-175 412,-175 412,-169 418,-163 424,-163 424,-163 488,-163 488,-163 494,-163 500,-169 500,-175 500,-175 500,-187 500,-187 500,-193 494,-199 488,-199"/>
<text text-anchor="middle" x="456" y="-177.3" font-family="Times,serif" font-size="14.00">伊藤万理華</text>
</g>
<!-- manatu&#45;&gt;marika -->
<!-- nene -->
<g id="node18" class="node">
<title>nene</title>
<path fill="#ffeeee" stroke="#ffffff" d="M686,-199C686,-199 636,-199 636,-199 630,-199 624,-193 624,-187 624,-187 624,-175 624,-175 624,-169 630,-163 636,-163 636,-163 686,-163 686,-163 692,-163 698,-169 698,-175 698,-175 698,-187 698,-187 698,-193 692,-199 686,-199"/>
<text text-anchor="middle" x="661" y="-177.3" font-family="Times,serif" font-size="14.00">伊藤寧々</text>
</g>
<!-- manatu&#45;&gt;nene -->
<!-- umemayo -->
<g id="node12" class="node">
<title>umemayo</title>
<path fill="#ffeeee" stroke="#ffffff" d="M764,-313C764,-313 714,-313 714,-313 708,-313 702,-307 702,-301 702,-301 702,-289 702,-289 702,-283 708,-277 714,-277 714,-277 764,-277 764,-277 770,-277 776,-283 776,-289 776,-289 776,-301 776,-301 776,-307 770,-313 764,-313"/>
<text text-anchor="middle" x="739" y="-291.3" font-family="Times,serif" font-size="14.00">梅澤美波</text>
</g>
<!-- haruchan -->
<g id="node13" class="node">
<title>haruchan</title>
<path fill="#ffeeee" stroke="#ffffff" d="M672,-313C672,-313 622,-313 622,-313 616,-313 610,-307 610,-301 610,-301 610,-289 610,-289 610,-283 616,-277 622,-277 622,-277 672,-277 672,-277 678,-277 684,-283 684,-289 684,-289 684,-301 684,-301 684,-307 678,-313 672,-313"/>
<text text-anchor="middle" x="647" y="-291.3" font-family="Times,serif" font-size="14.00">賀喜遥香</text>
</g>
<!-- hinapyon -->
<g id="node22" class="node">
<title>hinapyon</title>
<path fill="#ffeeee" stroke="#ffffff" d="M1112,-427C1112,-427 1044,-427 1044,-427 1038,-427 1032,-421 1032,-415 1032,-415 1032,-403 1032,-403 1032,-397 1038,-391 1044,-391 1044,-391 1112,-391 1112,-391 1118,-391 1124,-397 1124,-403 1124,-403 1124,-415 1124,-415 1124,-421 1118,-427 1112,-427"/>
<text text-anchor="middle" x="1078" y="-405.3" font-family="Times,serif" font-size="14.00">川後陽菜 猫</text>
</g>
<!-- sakura&#45;&gt;hinapyon -->
<!-- minami -->
<g id="node15" class="node">
<title>minami</title>
<path fill="#ffeeee" stroke="#ffffff" d="M870,-313C870,-313 806,-313 806,-313 800,-313 794,-307 794,-301 794,-301 794,-289 794,-289 794,-283 800,-277 806,-277 806,-277 870,-277 870,-277 876,-277 882,-283 882,-289 882,-289 882,-301 882,-301 882,-307 876,-313 870,-313"/>
<text text-anchor="middle" x="838" y="-291.3" font-family="Times,serif" font-size="14.00">星野みなみ</text>
</g>
<!-- minami&#45;&gt;ringo -->
<!-- hashimoto&#45;&gt;reika -->
<g id="edge21" class="edge">
<title>hashimoto&#45;&gt;reika</title>
<path fill="none" stroke="black" d="M1143.86,-578.14C1039.48,-577.94 780.25,-574.22 700,-543 657.2,-526.35 637.98,-471.32 630.03,-437.49"/>
<polygon fill="black" stroke="black" points="633.36,-436.35 627.83,-427.32 626.52,-437.84 633.36,-436.35"/>
<text text-anchor="middle" x="743" y="-531.8" font-family="Times,serif" font-size="14.00">セコくない人</text>
</g>
<!-- hashimoto&#45;&gt;erika -->
<g id="edge22" class="edge">
<title>hashimoto&#45;&gt;erika</title>
<path fill="none" stroke="black" d="M1143.71,-577.2C1049.08,-574.66 831.11,-564.05 774,-520 747.72,-499.73 734.83,-462.5 728.81,-437.02"/>
<polygon fill="black" stroke="black" points="732.23,-436.27 726.7,-427.23 725.39,-437.74 732.23,-436.27"/>
<text text-anchor="middle" x="862" y="-531.8" font-family="Times,serif" font-size="14.00">セコくない人</text>
</g>
<!-- hashimoto&#45;&gt;kakehashi -->
<!-- hashimoto&#45;&gt;ringo -->
<g id="edge23" class="edge">
<title>hashimoto&#45;&gt;ringo</title>
<path fill="none" stroke="black" d="M1219.59,-560.86C1234.23,-551.03 1250.11,-537.21 1258,-520 1306.55,-414.13 1373.07,-350.06 1298,-261 1246.65,-200.08 1002.74,-186.14 892.42,-182.95"/>
<polygon fill="black" stroke="black" points="892.26,-179.44 882.17,-182.67 892.07,-186.44 892.26,-179.44"/>
<text text-anchor="middle" x="1355.5" y="-355.8" font-family="Times,serif" font-size="14.00">CanCam</text>
</g>
<!-- hashimoto&#45;&gt;hinapyon -->
<g id="edge19" class="edge">
<title>hashimoto&#45;&gt;hinapyon</title>
<path fill="none" stroke="black" d="M1169.19,-560.92C1157.81,-549.95 1143.51,-535 1133,-520 1114.43,-493.5 1098.57,-459.82 1088.72,-436.75"/>
<polygon fill="black" stroke="black" points="1091.84,-435.14 1084.75,-427.26 1085.38,-437.84 1091.84,-435.14"/>
</g>
<!-- fukagawa -->
<g id="node23" class="node">
<title>fukagawa</title>
<path fill="#ffeeee" stroke="#ffffff" d="M1222,-427C1222,-427 1154,-427 1154,-427 1148,-427 1142,-421 1142,-415 1142,-415 1142,-403 1142,-403 1142,-397 1148,-391 1154,-391 1154,-391 1222,-391 1222,-391 1228,-391 1234,-397 1234,-403 1234,-403 1234,-415 1234,-415 1234,-421 1228,-427 1222,-427"/>
<text text-anchor="middle" x="1188" y="-405.3" font-family="Times,serif" font-size="14.00">深川麻衣 猫</text>
</g>
<!-- hashimoto&#45;&gt;fukagawa -->
<g id="edge18" class="edge">
<title>hashimoto&#45;&gt;fukagawa</title>
<path fill="none" stroke="black" d="M1188,-560.97C1188,-531.91 1188,-472.52 1188,-437.52"/>
<polygon fill="black" stroke="black" points="1191.5,-437.08 1188,-427.08 1184.5,-437.08 1191.5,-437.08"/>
</g>
<!-- hashimoto&#45;&gt;himetan -->
<!-- hashimoto&#45;&gt;miduki -->
<g id="edge16" class="edge">
<title>hashimoto&#45;&gt;miduki</title>
<path fill="none" stroke="black" d="M1241.38,-560.54C1263.47,-551.24 1288.07,-537.95 1306,-520 1359.94,-466 1366.17,-441.22 1384,-367 1409.85,-259.38 1383.69,-126.25 1370.1,-70.05"/>
<polygon fill="black" stroke="black" points="1240.05,-557.3 1232.08,-564.28 1242.67,-563.79 1240.05,-557.3"/>
<polygon fill="black" stroke="black" points="1373.45,-69.03 1367.65,-60.17 1366.66,-70.72 1373.45,-69.03"/>
<text text-anchor="middle" x="1418.5" y="-291.3" font-family="Times,serif" font-size="14.00">CanCam</text>
</g>
<!-- yoda -->
<g id="node31" class="node">
<title>yoda</title>
<path fill="#ffeeee" stroke="#ffffff" d="M1486,-60C1486,-60 1436,-60 1436,-60 1430,-60 1424,-54 1424,-48 1424,-48 1424,-36 1424,-36 1424,-30 1430,-24 1436,-24 1436,-24 1486,-24 1486,-24 1492,-24 1498,-30 1498,-36 1498,-36 1498,-48 1498,-48 1498,-54 1492,-60 1486,-60"/>
<text text-anchor="middle" x="1461" y="-38.3" font-family="Times,serif" font-size="14.00">与田祐希</text>
</g>
<!-- hashimoto&#45;&gt;yoda -->
<g id="edge20" class="edge">
<title>hashimoto&#45;&gt;yoda</title>
<path fill="none" stroke="black" d="M1232.18,-573.09C1314.03,-561.29 1481,-523.32 1481,-410 1481,-410 1481,-410 1481,-180 1481,-141.59 1473.21,-97.76 1467.35,-70.23"/>
<polygon fill="black" stroke="black" points="1470.71,-69.2 1465.14,-60.18 1463.87,-70.7 1470.71,-69.2"/>
</g>
<!-- asunyan -->
<g id="node35" class="node">
<title>asunyan</title>
<path fill="#ffeeee" stroke="#ffffff" d="M1571,-427C1571,-427 1521,-427 1521,-427 1515,-427 1509,-421 1509,-415 1509,-415 1509,-403 1509,-403 1509,-397 1515,-391 1521,-391 1521,-391 1571,-391 1571,-391 1577,-391 1583,-397 1583,-403 1583,-403 1583,-415 1583,-415 1583,-421 1577,-427 1571,-427"/>
<text text-anchor="middle" x="1546" y="-405.3" font-family="Times,serif" font-size="14.00">齋藤飛鳥</text>
</g>
<!-- hashimoto&#45;&gt;asunyan -->
<g id="edge17" class="edge">
<title>hashimoto&#45;&gt;asunyan</title>
<path fill="none" stroke="black" d="M1242.19,-578.4C1319.59,-577.9 1456.7,-572.67 1495,-543 1527.88,-517.53 1539.57,-468.13 1543.72,-437.23"/>
<polygon fill="black" stroke="black" points="1242.13,-574.9 1232.14,-578.44 1242.15,-581.9 1242.13,-574.9"/>
<polygon fill="black" stroke="black" points="1547.21,-437.48 1544.9,-427.14 1540.26,-436.67 1547.21,-437.48"/>
<text text-anchor="middle" x="1537" y="-531.8" font-family="Times,serif" font-size="14.00">推しメン</text>
</g>
<!-- hinapyon&#45;&gt;miduki -->
<!-- rarin -->
<g id="node24" class="node">
<title>rarin</title>
<path fill="#ffeeee" stroke="#ffffff" d="M1002,-427C1002,-427 934,-427 934,-427 928,-427 922,-421 922,-415 922,-415 922,-403 922,-403 922,-397 928,-391 934,-391 934,-391 1002,-391 1002,-391 1008,-391 1014,-397 1014,-403 1014,-403 1014,-415 1014,-415 1014,-421 1008,-427 1002,-427"/>
<text text-anchor="middle" x="968" y="-405.3" font-family="Times,serif" font-size="14.00">永島聖羅 猫</text>
</g>
<!-- misa -->
<g id="node28" class="node">
<title>misa</title>
<path fill="#ffeeee" stroke="#ffffff" d="M984,-313C984,-313 934,-313 934,-313 928,-313 922,-307 922,-301 922,-301 922,-289 922,-289 922,-283 928,-277 934,-277 934,-277 984,-277 984,-277 990,-277 996,-283 996,-289 996,-289 996,-301 996,-301 996,-307 990,-313 984,-313"/>
<text text-anchor="middle" x="959" y="-291.3" font-family="Times,serif" font-size="14.00">衛藤美彩</text>
</g>
<!-- rarin&#45;&gt;misa -->
<!-- rotty -->
<g id="node26" class="node">
<title>rotty</title>
<path fill="#ffeeee" stroke="#ffffff" d="M1168,-313C1168,-313 1118,-313 1118,-313 1112,-313 1106,-307 1106,-301 1106,-301 1106,-289 1106,-289 1106,-283 1112,-277 1118,-277 1118,-277 1168,-277 1168,-277 1174,-277 1180,-283 1180,-289 1180,-289 1180,-301 1180,-301 1180,-307 1174,-313 1168,-313"/>
<text text-anchor="middle" x="1143" y="-291.3" font-family="Times,serif" font-size="14.00">川村真洋</text>
</g>
<!-- waka -->
<g id="node27" class="node">
<title>waka</title>
<path fill="#ffeeee" stroke="#ffffff" d="M1076,-313C1076,-313 1026,-313 1026,-313 1020,-313 1014,-307 1014,-301 1014,-301 1014,-289 1014,-289 1014,-283 1020,-277 1026,-277 1026,-277 1076,-277 1076,-277 1082,-277 1088,-283 1088,-289 1088,-289 1088,-301 1088,-301 1088,-307 1082,-313 1076,-313"/>
<text text-anchor="middle" x="1051" y="-291.3" font-family="Times,serif" font-size="14.00">若月佑美</text>
</g>
<!-- chima -->
<g id="node29" class="node">
<title>chima</title>
<path fill="#ffeeee" stroke="#ffffff" d="M1584,-60C1584,-60 1534,-60 1534,-60 1528,-60 1522,-54 1522,-48 1522,-48 1522,-36 1522,-36 1522,-30 1528,-24 1534,-24 1534,-24 1584,-24 1584,-24 1590,-24 1596,-30 1596,-36 1596,-36 1596,-48 1596,-48 1596,-54 1590,-60 1584,-60"/>
<text text-anchor="middle" x="1559" y="-38.3" font-family="Times,serif" font-size="14.00">樋口日奈</text>
</g>
<!-- maiyan -->
<g id="node32" class="node">
<title>maiyan</title>
<path fill="#ffeeee" stroke="#ffffff" d="M1290,-60C1290,-60 1240,-60 1240,-60 1234,-60 1228,-54 1228,-48 1228,-48 1228,-36 1228,-36 1228,-30 1234,-24 1240,-24 1240,-24 1290,-24 1290,-24 1296,-24 1302,-30 1302,-36 1302,-36 1302,-48 1302,-48 1302,-54 1296,-60 1290,-60"/>
<text text-anchor="middle" x="1265" y="-38.3" font-family="Times,serif" font-size="14.00">白石麻衣</text>
</g>
<!-- nanase -->
<g id="node33" class="node">
<title>nanase</title>
<path fill="#ffeeee" stroke="#ffffff" d="M1198,-60C1198,-60 1148,-60 1148,-60 1142,-60 1136,-54 1136,-48 1136,-48 1136,-36 1136,-36 1136,-30 1142,-24 1148,-24 1148,-24 1198,-24 1198,-24 1204,-24 1210,-30 1210,-36 1210,-36 1210,-48 1210,-48 1210,-54 1204,-60 1198,-60"/>
<text text-anchor="middle" x="1173" y="-38.3" font-family="Times,serif" font-size="14.00">西野七瀬</text>
</g>
<!-- yuuri -->
<g id="node34" class="node">
<title>yuuri</title>
<path fill="#ffeeee" stroke="#ffffff" d="M1106,-60C1106,-60 1056,-60 1056,-60 1050,-60 1044,-54 1044,-48 1044,-48 1044,-36 1044,-36 1044,-30 1050,-24 1056,-24 1056,-24 1106,-24 1106,-24 1112,-24 1118,-30 1118,-36 1118,-36 1118,-48 1118,-48 1118,-54 1112,-60 1106,-60"/>
<text text-anchor="middle" x="1081" y="-38.3" font-family="Times,serif" font-size="14.00">斉藤優里</text>
</g>
</g>
</svg>
